<svg width="250" height="250" xmlns="http://www.w3.org/2000/svg">
	<g fill="none" fill-rule="evenodd">
		<path fill="#F6F6F6" d="M0 0h250v250H0z"/>
		<path fill="#EEE" d="M87.74 92.654c.33 2.107.257 4.223-.235 6.275-.143.61-.575 1.08-1.124 1.29-.32.12-.7.15-1.07.06-.99-.23-1.59-1.21-1.36-2.2.38-1.59.43-3.23.18-4.86-.28-1.82-.96-3.58-1.96-5.11-.91-1.39-2.05-2.57-3.39-3.51-.83-.57-1.04-1.71-.45-2.55.57-.83 1.71-1.04 2.54-.45 1.74 1.19 3.21 2.7 4.38 4.5 1.28 1.95 2.15 4.22 2.51 6.53zm99.493 69.586c-.05-.605.205-1.162.646-1.52.26-.21.59-.35.96-.378.97-.087 1.82.635 1.9 1.613.13 1.562.56 3.082 1.28 4.51.8 1.578 1.95 2.994 3.32 4.1 1.24 1 2.64 1.743 4.15 2.2.93.277 1.46 1.254 1.17 2.2-.28.926-1.26 1.456-2.19 1.168-1.95-.58-3.75-1.527-5.35-2.828-1.76-1.41-3.23-3.23-4.25-5.242-.93-1.833-1.5-3.795-1.66-5.823zM37.72 183.528c-.607-.013-1.134-.326-1.443-.802-.183-.283-.288-.63-.276-1 .02-.977.83-1.742 1.81-1.72 1.57.035 3.13-.24 4.62-.806 1.66-.632 3.18-1.624 4.43-2.874 1.13-1.135 2.01-2.445 2.63-3.897.37-.9 1.4-1.33 2.31-.94.89.37 1.32 1.4.94 2.3-.78 1.88-1.91 3.56-3.373 5.02-1.582 1.59-3.546 2.87-5.654 3.67-1.92.73-3.93 1.08-5.963 1.03zm84.325 48.634c.33.51.364 1.123.143 1.645-.132.31-.362.59-.675.788-.82.534-1.903.293-2.434-.532-.85-1.32-1.95-2.456-3.26-3.38-1.45-1.017-3.13-1.73-4.86-2.06-1.57-.298-3.15-.3-4.7.004-.96.195-1.89-.42-2.07-1.39-.19-.95.43-1.878 1.38-2.06 1.99-.404 4.02-.41 6.05-.016 2.21.43 4.36 1.34 6.21 2.64 1.68 1.18 3.1 2.65 4.19 4.37zm110.79-10.974c.606-.05 1.163.206 1.52.647.212.262.352.596.38.965.086.974-.636 1.818-1.614 1.9-1.56.13-3.08.566-4.51 1.284-1.57.8-2.99 1.947-4.09 3.32-1 1.247-1.74 2.643-2.2 4.15-.27.934-1.25 1.466-2.19 1.174-.92-.278-1.45-1.26-1.17-2.19.58-1.95 1.53-3.744 2.83-5.352 1.41-1.753 3.23-3.226 5.24-4.244 1.84-.93 3.8-1.494 5.83-1.654zm-68.082-18.228c-.443.44-1.06.692-1.695.692-.63 0-1.25-.252-1.693-.692-.445-.447-.706-1.07-.706-1.7 0-.63.26-1.238.7-1.688.89-.898 2.5-.898 3.39 0 .44.45.7 1.058.7 1.688 0 .63-.26 1.253-.7 1.7zm-31-109c-.443.44-1.06.692-1.695.692-.63 0-1.25-.252-1.693-.692-.445-.447-.706-1.07-.706-1.7 0-.63.26-1.238.7-1.688.89-.898 2.5-.898 3.39 0 .44.45.7 1.058.7 1.688 0 .63-.26 1.253-.7 1.7zm-78-57c-.443.44-1.06.692-1.695.692-.63 0-1.25-.252-1.693-.692-.445-.447-.706-1.07-.706-1.7 0-.63.26-1.238.7-1.688.89-.898 2.5-.898 3.39 0 .44.45.7 1.058.7 1.688 0 .63-.26 1.253-.7 1.7zm47.005-28.482l4.21 3.79c.55.486.733 1.234.545 1.888-.075.262-.218.51-.4.732-.687.76-1.867.823-2.617.137l-4.227-3.784c-.77-.69-.83-1.86-.14-2.62.68-.76 1.85-.83 2.62-.14zM42.664 128.575l-2.483 5.09c-.31.665-.98 1.046-1.66 1.046-.27 0-.55-.06-.81-.18-.92-.45-1.3-1.57-.85-2.48l2.47-5.1c.46-.92 1.57-1.31 2.49-.85.93.45 1.31 1.56.86 2.49zm159-49.97l-2.483 5.09c-.31.665-.98 1.045-1.66 1.045-.27 0-.55-.07-.81-.183-.92-.45-1.3-1.567-.85-2.477l2.47-5.107c.46-.927 1.57-1.31 2.49-.85.93.447 1.31 1.554.86 2.482zm-45.18 51.36l5.174-2.305c.67-.305 1.426-.167 1.948.27.208.176.377.408.505.664.42.937 0 2.04-.93 2.446l-5.18 2.323c-.94.418-2.04-.003-2.45-.943-.42-.94 0-2.034.94-2.455zm19.59-114.568l5.176-2.305c.668-.305 1.426-.167 1.947.27.21.175.377.407.505.664.417.937-.007 2.04-.94 2.446l-5.175 2.323c-.943.418-2.04-.003-2.448-.943-.43-.94-.01-2.034.93-2.455zM129.322 42.2c-.403-.485-.517-1.11-.354-1.677.096-.336.297-.654.594-.897.776-.653 1.923-.542 2.574.24 1.04 1.252 2.315 2.283 3.775 3.07 1.62.864 3.44 1.385 5.27 1.507 1.66.107 3.28-.09 4.84-.598.96-.322 1.99.192 2.31 1.17.32.952-.2 1.986-1.16 2.295-2 .67-4.09.93-6.23.782-2.33-.155-4.662-.824-6.73-1.93-1.88-1.003-3.53-2.336-4.87-3.963z"/>
		<path stroke="#EEE" stroke-width="2" d="M236.245 24.166c-1.11 1.1-2.65 1.73-4.242 1.73-1.575 0-3.126-.63-4.237-1.73-1.114-1.12-1.766-2.676-1.766-4.255 0-1.57.652-3.09 1.766-4.22 2.224-2.25 6.27-2.25 8.48 0 1.112 1.13 1.754 2.65 1.754 4.23 0 1.58-.642 3.14-1.755 4.26zM29.185 231.112c-.833.825-1.988 1.298-3.183 1.298-1.18 0-2.344-.473-3.177-1.298-.836-.84-1.325-2.007-1.325-3.192 0-1.182.49-2.323 1.325-3.168 1.668-1.687 4.702-1.687 6.36 0 .834.845 1.315 1.986 1.315 3.168 0 1.185-.48 2.35-1.316 3.192zm89.91-68.05c-.444.44-1.06.692-1.696.692-.63 0-1.25-.252-1.7-.692-.45-.448-.71-1.07-.71-1.7 0-.63.26-1.238.7-1.688.89-.9 2.5-.9 3.39 0 .44.45.7 1.058.7 1.688 0 .63-.26 1.252-.7 1.7zm106-39c-.444.44-1.06.692-1.696.692-.63 0-1.25-.252-1.7-.692-.45-.448-.71-1.07-.71-1.7 0-.63.26-1.238.7-1.688.89-.9 2.5-.9 3.39 0 .44.45.7 1.058.7 1.688 0 .63-.26 1.252-.7 1.7zM26.805 76.77c-.63.626-1.503.984-2.407.984-.896 0-1.776-.358-2.407-.983-.63-.63-1-1.51-1-2.41 0-.89.37-1.76 1.01-2.39 1.26-1.27 3.56-1.27 4.82 0 .63.64 1 1.5 1 2.4 0 .9-.36 1.78-.99 2.42z"/>
	</g>
</svg>