<?xml version="1.0" encoding="utf-8"?>
<!-- Generator: Adobe Illustrator 19.0.0, SVG Export Plug-In . SVG Version: 6.00 Build 0)  -->
<svg version="1.1" id="Layer_1" xmlns="http://www.w3.org/2000/svg" xmlns:xlink="http://www.w3.org/1999/xlink" x="0px" y="0px"
	 viewBox="-41 164.9 512 512" style="enable-background:new -41 164.9 512 512;" xml:space="preserve">
<style type="text/css">
	.st0{fill:#CFF09E;}
	.st1{fill:#1AB188;}
	.st2{fill:#507C5C;}
	.st3{fill:#507C5C;stroke:#507C5C;stroke-width:31.6;stroke-miterlimit:10;}
</style>
<path class="st0" d="M377.1,395.2c-44.7-44.7-109.8-56.5-165.3-35.5v187.6c0,32.9-15.8,62.3-40.1,81.1
	c61.1,47.4,149.3,43.1,205.4-13C437.9,554.6,437.9,456,377.1,395.2z"/>
<path class="st1" d="M211.8,268.8h-13.5c0-48.2-39.1-87.3-87.3-87.3c-48.2,0-87.3,39.1-87.3,87.3H10.3v303.1h13.1
	c6.6,41.6,42.7,73.5,86.2,73.5s79.6-31.8,86.2-73.5h16.1V268.8z"/>
<g>
	<path class="st2" d="M267.1,677.1C267.1,677.1,267.1,677.1,267.1,677.1c-37.9,0-75.3-12.8-105.1-35.9c-3.9-3-6.1-7.6-6.1-12.6
		s2.3-9.5,6.2-12.5c21.6-16.6,34-41.6,34-68.5V359.9c0-6.6,4.1-12.5,10.2-14.8c19.5-7.4,39.9-11.1,60.8-11.1
		c45.8,0,88.9,17.8,121.3,50.2c32.4,32.4,50.3,75.5,50.3,121.3s-17.8,88.9-50.3,121.3C356,659.2,312.9,677.1,267.1,677.1z
		 M197.2,626.7c21.1,12.1,45.4,18.7,69.9,18.7c0,0,0,0,0,0c37.3,0,72.4-14.5,98.8-40.9c26.4-26.4,41-61.5,41-98.9
		c0-37.4-14.5-72.5-41-98.9c-26.4-26.4-61.5-40.9-98.8-40.9c-13.4,0-26.6,1.9-39.4,5.6v176.2C227.7,577.2,216.8,605.1,197.2,626.7z"
		/>
	<path class="st2" d="M216.5,571.9c-4.1,0-8.1-1.5-11.2-4.6c-6.2-6.2-6.2-16.2,0-22.4l101-101c6.2-6.2,16.2-6.2,22.4,0
		c6.2,6.2,6.2,16.2,0,22.4l-101,101C224.6,570.4,220.6,571.9,216.5,571.9z"/>
	<path class="st2" d="M143.5,431.2H75.6c-8.8,0-15.9-7.1-15.9-15.9s7.1-15.9,15.9-15.9h67.9c8.8,0,15.9,7.1,15.9,15.9
		S152.3,431.2,143.5,431.2z"/>
	<line class="st3" x1="211.8" y1="283.6" x2="211.8" y2="376.6"/>
	<path class="st2" d="M109.6,665.7c-65.1,0-118.2-53-118.2-118.2V283.2c0-65.1,53-118.2,118.2-118.2s118.1,53,118.1,118.2
		c0,8.8-7.1,15.9-15.9,15.9S196,292,196,283.2c0-47.7-38.8-86.4-86.4-86.4s-86.4,38.8-86.4,86.4v264.3c0,47.7,38.8,86.4,86.4,86.4
		s86.4-38.8,86.4-86.4c0-8.8,7.1-15.9,15.9-15.9c8.8,0,15.9,7.1,15.9,15.9C227.7,612.7,174.7,665.7,109.6,665.7z"/>
</g>
</svg>
